<?xml version="1.0" standalone="no"?>
<!DOCTYPE svg PUBLIC "-//W3C//DTD SVG 20010904//EN"
 "http://www.w3.org/TR/2001/REC-SVG-20010904/DTD/svg10.dtd">
<svg version="1.0" xmlns="http://www.w3.org/2000/svg"
 width="200.000000pt" height="200.000000pt" viewBox="0 0 200.000000 200.000000"
 preserveAspectRatio="xMidYMid meet">
<metadata>
</metadata>
<g transform="translate(0.000000,200.000000) scale(0.100000,-0.100000)"
fill="#000000" stroke="none">
<path d="M6 1863 c-2 -3 16 -39 41 -81 25 -43 60 -102 78 -132 18 -30 43 -73
55 -94 12 -22 121 -211 243 -420 121 -210 226 -390 232 -401 5 -11 18 -31 26
-45 19 -30 288 -495 305 -528 14 -28 -27 -95 395 633 172 297 350 605 397 685
46 80 98 170 115 200 17 30 40 71 52 90 12 19 29 49 38 66 l16 32 -383 0 -384
0 -113 -194 c-62 -107 -115 -194 -119 -194 -3 0 -57 87 -119 194 l-112 194
-379 0 c-209 0 -381 -3 -384 -5z"/>
</g>
</svg>
